<svg
    xmlns="http://www.w3.org/2000/svg"
    width="100%"
    height="700px"
    viewBox="0 0 1920 700"
    preserveAspectRatio="none"
    style="background-color: #000000;"
>
    <!-- Diagonal lines -->
    <line x1="0" y1="100" x2="1920" y2="0" stroke="#8A2BE2" stroke-width="2" />
    <line x1="0" y1="300" x2="1920" y2="200" stroke="#8A2BE2" stroke-width="2" />
    <line x1="0" y1="500" x2="1920" y2="400" stroke="#8A2BE2" stroke-width="2" />
    
    <!-- Vertical lines -->
    <line x1="300" y1="0" x2="300" y2="700" stroke="#8A2BE2" stroke-width="2" />
    <line x1="800" y1="0" x2="800" y2="700" stroke="#8A2BE2" stroke-width="2" />
    <line x1="1300" y1="0" x2="1300" y2="700" stroke="#8A2BE2" stroke-width="2" />
    <line x1="1800" y1="0" x2="1800" y2="700" stroke="#8A2BE2" stroke-width="2" />

    <!-- Horizontal lines -->
    <line x1="0" y1="200" x2="1920" y2="200" stroke="#8A2BE2" stroke-width="2" />
    <line x1="0" y1="400" x2="1920" y2="400" stroke="#8A2BE2" stroke-width="2" />
    <line x1="0" y1="600" x2="1920" y2="600" stroke="#8A2BE2" stroke-width="2" />

    <!-- Cyberpunk corner details -->
    <polyline points="0,50 50,50 50,0" fill="none" stroke="#8A2BE2" stroke-width="2" />
    <polyline points="1870,700 1920,700 1920,650" fill="none" stroke="#8A2BE2" stroke-width="2" />
    <polyline points="0,650 50,650 50,700" fill="none" stroke="#8A2BE2" stroke-width="2" />
    <polyline points="1870,0 1920,0 1920,50" fill="none" stroke="#8A2BE2" stroke-width="2" />
</svg>